<svg width="207" height="215" version="1.1" xmlns="http://www.w3.org/2000/svg" desc="Created with imagetracer.js version 1.2.6" ><path fill="rgb(253,32,82)" stroke="rgb(253,32,82)" stroke-width="1" opacity="1" d="M 23.5 9 L 22.5 11 L 23.5 9 Z " /><path fill="rgb(253,32,82)" stroke="rgb(253,32,82)" stroke-width="1" opacity="1" d="M 67.5 12 L 68.5 14 L 67.5 12 Z " /><path fill="rgb(253,32,82)" stroke="rgb(253,32,82)" stroke-width="1" opacity="1" d="M 18.5 13 L 17.5 15 L 18.5 13 Z " /><path fill="rgb(253,32,82)" stroke="rgb(253,32,82)" stroke-width="1" opacity="1" d="M 71.5 15 L 72.5 17 L 71.5 15 Z " /><path fill="rgb(253,32,82)" stroke="rgb(253,32,82)" stroke-width="1" opacity="1" d="M 76.5 19 L 78.5 22 L 76.5 19 Z " /><path fill="rgb(253,32,82)" stroke="rgb(253,32,82)" stroke-width="1" opacity="1" d="M 117.5 21 L 120 21.5 L 117.5 22 L 117.5 21 Z " /><path fill="rgb(253,32,82)" stroke="rgb(253,32,82)" stroke-width="1" opacity="1" d="M 2.5 39 L 3 46.5 L 2 46.5 L 2.5 39 Z " /><path fill="rgb(253,32,82)" stroke="rgb(253,32,82)" stroke-width="1" opacity="1" d="M 167.5 41 L 168.5 43 L 167.5 41 Z " /><path fill="rgb(253,32,82)" stroke="rgb(253,32,82)" stroke-width="1" opacity="1" d="M 172.5 45 L 179.5 53 L 172.5 45 Z " /><path fill="rgb(253,32,82)" stroke="rgb(253,32,82)" stroke-width="1" opacity="1" d="M 182.5 56 L 183.5 58 L 182.5 56 Z " /><path fill="rgb(253,32,82)" stroke="rgb(253,32,82)" stroke-width="1" opacity="1" d="M 98.5 61 L 101 61.5 L 98.5 62 L 98.5 61 Z " /><path fill="rgb(253,32,82)" stroke="rgb(253,32,82)" stroke-width="1" opacity="1" d="M 114.5 61 L 117 61.5 L 114.5 62 L 114.5 61 Z " /><path fill="rgb(253,32,82)" stroke="rgb(253,32,82)" stroke-width="1" opacity="1" d="M 73.5 72 L 72.5 74 L 73.5 72 Z " /><path fill="rgb(253,32,82)" stroke="rgb(253,32,82)" stroke-width="1" opacity="1" d="M 141.5 72 L 142.5 74 L 141.5 72 Z " /><path fill="rgb(253,32,82)" stroke="rgb(253,32,82)" stroke-width="1" opacity="1" d="M 65.5 80 L 64.5 82 L 65.5 80 Z " /><path fill="rgb(253,32,82)" stroke="rgb(253,32,82)" stroke-width="1" opacity="1" d="M 150.5 81 L 151.5 83 L 150.5 81 Z " /><path fill="rgb(253,32,82)" stroke="rgb(253,32,82)" stroke-width="1" opacity="1" d="M 91.5 95 L 88.5 99 L 91.5 95 Z " /><path fill="rgb(253,32,82)" stroke="rgb(253,32,82)" stroke-width="1" opacity="1" d="M 203.5 106 L 204 108.5 L 203 108.5 L 203.5 106 Z " /><path fill="rgb(253,32,82)" stroke="rgb(253,32,82)" stroke-width="1" opacity="1" d="M 162.5 108 L 163 110.5 L 162 110.5 L 162.5 108 Z " /><path fill="rgb(253,32,82)" stroke="rgb(253,32,82)" stroke-width="1" opacity="1" d="M 52.5 110 L 53 112.5 L 52 112.5 L 52.5 110 Z " /><path fill="rgb(253,32,82)" stroke="rgb(253,32,82)" stroke-width="1" opacity="1" d="M 11.5 112 L 12 120.5 L 11 120.5 L 11.5 112 Z " /><path fill="rgb(253,32,82)" stroke="rgb(253,32,82)" stroke-width="1" opacity="1" d="M 132.5 112 L 133 118.5 L 132 118.5 L 132.5 112 Z " /><path fill="rgb(253,32,82)" stroke="rgb(253,32,82)" stroke-width="1" opacity="1" d="M 52.5 120 L 53 122.5 L 52 122.5 L 52.5 120 Z " /><path fill="rgb(253,32,82)" stroke="rgb(253,32,82)" stroke-width="1" opacity="1" d="M 162.5 121 L 163 123.5 L 162 123.5 L 162.5 121 Z " /><path fill="rgb(253,32,82)" stroke="rgb(253,32,82)" stroke-width="1" opacity="1" d="M 203.5 124 L 204 126.5 L 203 126.5 L 203.5 124 Z " /><path fill="rgb(253,32,82)" stroke="rgb(253,32,82)" stroke-width="1" opacity="1" d="M 12.5 128 L 13 130.5 L 12 130.5 L 12.5 128 Z " /><path fill="rgb(253,32,82)" stroke="rgb(253,32,82)" stroke-width="1" opacity="1" d="M 127.5 131 L 124.5 135 L 127.5 131 Z " /><path fill="rgb(253,32,82)" stroke="rgb(253,32,82)" stroke-width="1" opacity="1" d="M 92.5 136 L 93.5 138 L 92.5 136 Z " /><path fill="rgb(253,32,82)" stroke="rgb(253,32,82)" stroke-width="1" opacity="1" d="M 104.5 141 L 111 141.5 L 104.5 142 L 104.5 141 Z " /><path fill="rgb(253,32,82)" stroke="rgb(253,32,82)" stroke-width="1" opacity="1" d="M 62.5 148 L 63.5 150 L 62.5 148 Z " /><path fill="rgb(253,32,82)" stroke="rgb(253,32,82)" stroke-width="1" opacity="1" d="M 148.5 153 L 144.5 158 L 148.5 153 Z " /><path fill="rgb(253,32,82)" stroke="rgb(253,32,82)" stroke-width="1" opacity="1" d="M 67.5 154 L 69.5 157 L 67.5 154 Z " /><path fill="rgb(253,32,82)" stroke="rgb(253,32,82)" stroke-width="1" opacity="1" d="M 140.5 160 L 139.5 162 L 140.5 160 Z " /><path fill="rgb(253,32,82)" stroke="rgb(253,32,82)" stroke-width="1" opacity="1" d="M 103.5 171 L 112 171.5 L 103.5 172 L 103.5 171 Z " /><path fill="rgb(253,32,82)" stroke="rgb(253,32,82)" stroke-width="1" opacity="1" d="M 30.5 173 L 31.5 175 L 30.5 173 Z " /><path fill="rgb(253,32,82)" stroke="rgb(253,32,82)" stroke-width="1" opacity="1" d="M 183.5 175 L 182.5 177 L 183.5 175 Z " /><path fill="rgb(253,32,82)" stroke="rgb(253,32,82)" stroke-width="1" opacity="1" d="M 34.5 178 L 35.5 180 L 34.5 178 Z " /><path fill="rgb(253,32,82)" stroke="rgb(253,32,82)" stroke-width="1" opacity="1" d="M 43.5 187 L 44.5 189 L 43.5 187 Z " /><path fill="rgb(253,32,82)" stroke="rgb(253,32,82)" stroke-width="1" opacity="1" d="M 168.5 190 L 167.5 192 L 168.5 190 Z " /><path fill="rgb(253,32,82)" stroke="rgb(253,32,82)" stroke-width="1" opacity="1" d="M 55.5 196 L 56.5 198 L 55.5 196 Z " /><path fill="rgb(253,32,82)" stroke="rgb(253,32,82)" stroke-width="1" opacity="1" d="M 97.5 211 L 100 211.5 L 97.5 212 L 97.5 211 Z " /><path fill="rgb(253,32,82)" stroke="rgb(253,32,82)" stroke-width="1" opacity="1" d="M 115.5 211 L 119 211.5 L 115.5 212 L 115.5 211 Z " /><path fill="rgb(253,0,39)" stroke="rgb(253,0,39)" stroke-width="1" opacity="1" d="M 37.5 3 L 48.5 3 L 57.5 6 L 64.5 10 L 81.5 24 L 85.5 24 L 98.5 21 L 116.5 21 L 133.5 24 L 151.5 31 Q 169.5 40.5 182 55.5 Q 194.8 70.2 201 91.5 L 203 101.5 L 203 108.5 L 204 109.5 L 204 123.5 L 203 124.5 L 203 131.5 L 201 141.5 L 194 159.5 Q 184.5 177.5 169.5 190 Q 156.6 200.6 139.5 207 L 123.5 211 L 100.5 212 L 99.5 211 L 92.5 211 L 82.5 209 L 68.5 204 Q 49.3 195.2 36 180.5 Q 21 164 14 139.5 L 13 128.5 L 12 127.5 L 12 104.5 L 16 89.5 L 16 84.5 L 5 58.5 L 3 50.5 L 3 35.5 Q 6.6 22.1 16.5 15 Q 24.6 6.6 37.5 3 Z M 99 61 Q 84 64 74 72 Q 64 80 58 91 L 54 101 L 52 111 Q 52 140 67 155 L 85 167 L 93 170 L 104 172 Q 131 172 145 158 Q 159 146 163 124 L 163 109 L 162 104 Q 159 91 152 83 Q 143 70 128 64 L 117 61 L 99 61 Z " /><path fill="rgb(253,0,39)" stroke="rgb(253,0,39)" stroke-width="1" opacity="1" d="M 103.5 90 L 115.5 91 Q 123.3 94.3 128 100.5 Q 134 107.5 132 122.5 L 129 129.5 L 124 136 L 113.5 141 L 100.5 141 Q 91.6 138.4 87 131.5 Q 81.5 125 82 112.5 Q 84.4 99.9 93.5 94 L 103.5 90 Z " /><path fill="rgb(239,193,200)" stroke="rgb(239,193,200)" stroke-width="1" opacity="1" d="M 39.5 2 L 47 2.5 L 39.5 3 L 39.5 2 Z " /><path fill="rgb(239,193,200)" stroke="rgb(239,193,200)" stroke-width="1" opacity="1" d="M 62.5 8 L 63.5 10 L 62.5 8 Z " /><path fill="rgb(239,193,200)" stroke="rgb(239,193,200)" stroke-width="1" opacity="1" d="M 21.5 10 L 19.5 13 L 21.5 10 Z " /><path fill="rgb(239,193,200)" stroke="rgb(239,193,200)" stroke-width="1" opacity="1" d="M 65.5 10 L 66.5 12 L 65.5 10 Z " /><path fill="rgb(239,193,200)" stroke="rgb(239,193,200)" stroke-width="1" opacity="1" d="M 69.5 13 L 70.5 15 L 69.5 13 Z " /><path fill="rgb(239,193,200)" stroke="rgb(239,193,200)" stroke-width="1" opacity="1" d="M 15.5 15 L 10.5 21 L 15.5 15 Z " /><path fill="rgb(239,193,200)" stroke="rgb(239,193,200)" stroke-width="1" opacity="1" d="M 74.5 17 L 75.5 19 L 74.5 17 Z " /><path fill="rgb(239,193,200)" stroke="rgb(239,193,200)" stroke-width="1" opacity="1" d="M 103.5 20 L 114 20.5 L 103.5 21 L 103.5 20 Z " /><path fill="rgb(239,193,200)" stroke="rgb(239,193,200)" stroke-width="1" opacity="1" d="M 93.5 21 L 96 21.5 L 93.5 22 L 93.5 21 Z " /><path fill="rgb(239,193,200)" stroke="rgb(239,193,200)" stroke-width="1" opacity="1" d="M 120.5 21 L 123 21.5 L 120.5 22 L 120.5 21 Z " /><path fill="rgb(239,193,200)" stroke="rgb(239,193,200)" stroke-width="1" opacity="1" d="M 80.5 22 L 81.5 24 L 80.5 22 Z " /><path fill="rgb(239,193,200)" stroke="rgb(239,193,200)" stroke-width="1" opacity="1" d="M 8.5 23 L 7.5 25 L 8.5 23 Z " /><path fill="rgb(239,193,200)" stroke="rgb(239,193,200)" stroke-width="1" opacity="1" d="M 2.5 36 L 3 38.5 L 2 38.5 L 2.5 36 Z " /><path fill="rgb(239,193,200)" stroke="rgb(239,193,200)" stroke-width="1" opacity="1" d="M 165.5 39 L 166.5 41 L 165.5 39 Z " /><path fill="rgb(239,193,200)" stroke="rgb(239,193,200)" stroke-width="1" opacity="1" d="M 170.5 43 L 171.5 45 L 170.5 43 Z " /><path fill="rgb(239,193,200)" stroke="rgb(239,193,200)" stroke-width="1" opacity="1" d="M 180.5 53 L 182.5 56 L 180.5 53 Z " /><path fill="rgb(239,193,200)" stroke="rgb(239,193,200)" stroke-width="1" opacity="1" d="M 184.5 58 L 185.5 60 L 184.5 58 Z " /><path fill="rgb(239,193,200)" stroke="rgb(239,193,200)" stroke-width="1" opacity="1" d="M 101.5 61 L 105 61.5 L 101.5 62 L 101.5 61 Z " /><path fill="rgb(239,193,200)" stroke="rgb(239,193,200)" stroke-width="1" opacity="1" d="M 111.5 61 L 114 61.5 L 111.5 62 L 111.5 61 Z " /><path fill="rgb(239,193,200)" stroke="rgb(239,193,200)" stroke-width="1" opacity="1" d="M 75.5 71 L 74.5 73 L 75.5 71 Z " /><path fill="rgb(239,193,200)" stroke="rgb(239,193,200)" stroke-width="1" opacity="1" d="M 71.5 74 L 66.5 80 L 71.5 74 Z " /><path fill="rgb(239,193,200)" stroke="rgb(239,193,200)" stroke-width="1" opacity="1" d="M 143.5 74 L 149.5 81 L 143.5 74 Z " /><path fill="rgb(239,193,200)" stroke="rgb(239,193,200)" stroke-width="1" opacity="1" d="M 63.5 83 L 62.5 85 L 63.5 83 Z " /><path fill="rgb(239,193,200)" stroke="rgb(239,193,200)" stroke-width="1" opacity="1" d="M 61.5 86 L 60.5 88 L 61.5 86 Z " /><path fill="rgb(239,193,200)" stroke="rgb(239,193,200)" stroke-width="1" opacity="1" d="M 104.5 89 L 110 89.5 L 104.5 90 L 104.5 89 Z " /><path fill="rgb(239,193,200)" stroke="rgb(239,193,200)" stroke-width="1" opacity="1" d="M 119.5 92 L 120.5 94 L 119.5 92 Z " /><path fill="rgb(239,193,200)" stroke="rgb(239,193,200)" stroke-width="1" opacity="1" d="M 122.5 94 L 127.5 100 L 122.5 94 Z " /><path fill="rgb(239,193,200)" stroke="rgb(239,193,200)" stroke-width="1" opacity="1" d="M 87.5 99 L 86.5 101 L 87.5 99 Z " /><path fill="rgb(239,193,200)" stroke="rgb(239,193,200)" stroke-width="1" opacity="1" d="M 203.5 102 L 204 105.5 L 203 105.5 L 203.5 102 Z " /><path fill="rgb(239,193,200)" stroke="rgb(239,193,200)" stroke-width="1" opacity="1" d="M 11.5 107 L 12 111.5 L 11 111.5 L 11.5 107 Z " /><path fill="rgb(239,193,200)" stroke="rgb(239,193,200)" stroke-width="1" opacity="1" d="M 162.5 111 L 163 120.5 L 162 120.5 L 162.5 111 Z " /><path fill="rgb(239,193,200)" stroke="rgb(239,193,200)" stroke-width="1" opacity="1" d="M 204.5 112 L 205 118.5 L 204 118.5 L 204.5 112 Z " /><path fill="rgb(239,193,200)" stroke="rgb(239,193,200)" stroke-width="1" opacity="1" d="M 52.5 113 L 53 119.5 L 52 119.5 L 52.5 113 Z " /><path fill="rgb(239,193,200)" stroke="rgb(239,193,200)" stroke-width="1" opacity="1" d="M 11.5 121 L 12 125.5 L 11 125.5 L 11.5 121 Z " /><path fill="rgb(239,193,200)" stroke="rgb(239,193,200)" stroke-width="1" opacity="1" d="M 203.5 127 L 204 130.5 L 203 130.5 L 203.5 127 Z " /><path fill="rgb(239,193,200)" stroke="rgb(239,193,200)" stroke-width="1" opacity="1" d="M 87.5 132 L 91.5 137 L 87.5 132 Z " /><path fill="rgb(239,193,200)" stroke="rgb(239,193,200)" stroke-width="1" opacity="1" d="M 61.5 146 L 62.5 148 L 61.5 146 Z " /><path fill="rgb(239,193,200)" stroke="rgb(239,193,200)" stroke-width="1" opacity="1" d="M 151.5 149 L 149.5 152 L 151.5 149 Z " /><path fill="rgb(239,193,200)" stroke="rgb(239,193,200)" stroke-width="1" opacity="1" d="M 64.5 150 L 66.5 153 L 64.5 150 Z " /><path fill="rgb(239,193,200)" stroke="rgb(239,193,200)" stroke-width="1" opacity="1" d="M 71.5 157 L 73.5 160 L 71.5 157 Z " /><path fill="rgb(239,193,200)" stroke="rgb(239,193,200)" stroke-width="1" opacity="1" d="M 142.5 158 L 141.5 160 L 142.5 158 Z " /><path fill="rgb(239,193,200)" stroke="rgb(239,193,200)" stroke-width="1" opacity="1" d="M 138.5 161 L 137.5 163 L 138.5 161 Z " /><path fill="rgb(239,193,200)" stroke="rgb(239,193,200)" stroke-width="1" opacity="1" d="M 26.5 168 L 27.5 170 L 26.5 168 Z " /><path fill="rgb(239,193,200)" stroke="rgb(239,193,200)" stroke-width="1" opacity="1" d="M 98.5 170 L 101 170.5 L 98.5 171 L 98.5 170 Z " /><path fill="rgb(239,193,200)" stroke="rgb(239,193,200)" stroke-width="1" opacity="1" d="M 28.5 171 L 29.5 173 L 28.5 171 Z " /><path fill="rgb(239,193,200)" stroke="rgb(239,193,200)" stroke-width="1" opacity="1" d="M 185.5 173 L 184.5 175 L 185.5 173 Z " /><path fill="rgb(239,193,200)" stroke="rgb(239,193,200)" stroke-width="1" opacity="1" d="M 2.5 175 L 3 177.5 L 2 177.5 L 2.5 175 Z " /><path fill="rgb(239,193,200)" stroke="rgb(239,193,200)" stroke-width="1" opacity="1" d="M 31.5 175 L 33.5 178 L 31.5 175 Z " /><path fill="rgb(239,193,200)" stroke="rgb(239,193,200)" stroke-width="1" opacity="1" d="M 181.5 178 L 179.5 181 L 181.5 178 Z " /><path fill="rgb(239,193,200)" stroke="rgb(239,193,200)" stroke-width="1" opacity="1" d="M 177.5 182 L 170.5 190 L 177.5 182 Z " /><path fill="rgb(239,193,200)" stroke="rgb(239,193,200)" stroke-width="1" opacity="1" d="M 2.5 184 L 3 189.5 L 2 189.5 L 2.5 184 Z " /><path fill="rgb(239,193,200)" stroke="rgb(239,193,200)" stroke-width="1" opacity="1" d="M 203.5 184 L 204 188.5 L 203 188.5 L 203.5 184 Z " /><path fill="rgb(239,193,200)" stroke="rgb(239,193,200)" stroke-width="1" opacity="1" d="M 45.5 189 L 47.5 192 L 45.5 189 Z " /><path fill="rgb(239,193,200)" stroke="rgb(239,193,200)" stroke-width="1" opacity="1" d="M 166.5 192 L 165.5 194 L 166.5 192 Z " /><path fill="rgb(239,193,200)" stroke="rgb(239,193,200)" stroke-width="1" opacity="1" d="M 50.5 193 L 51.5 195 L 50.5 193 Z " /><path fill="rgb(239,193,200)" stroke="rgb(239,193,200)" stroke-width="1" opacity="1" d="M 2.5 195 L 3 200.5 L 2 200.5 L 2.5 195 Z " /><path fill="rgb(239,193,200)" stroke="rgb(239,193,200)" stroke-width="1" opacity="1" d="M 53.5 195 L 54.5 197 L 53.5 195 Z " /><path fill="rgb(239,193,200)" stroke="rgb(239,193,200)" stroke-width="1" opacity="1" d="M 203.5 195 L 204 200.5 L 203 200.5 L 203.5 195 Z " /><path fill="rgb(239,193,200)" stroke="rgb(239,193,200)" stroke-width="1" opacity="1" d="M 2.5 206 L 3 211.5 L 2 211.5 L 2.5 206 Z " /><path fill="rgb(239,193,200)" stroke="rgb(239,193,200)" stroke-width="1" opacity="1" d="M 203.5 206 L 204 211.5 L 203 211.5 L 203.5 206 Z " /><path fill="rgb(239,193,200)" stroke="rgb(239,193,200)" stroke-width="1" opacity="1" d="M 93.5 211 L 97 211.5 L 93.5 212 L 93.5 211 Z " /><path fill="rgb(239,193,200)" stroke="rgb(239,193,200)" stroke-width="1" opacity="1" d="M 119.5 211 L 122 211.5 L 119.5 212 L 119.5 211 Z " /><path fill="rgb(239,193,200)" stroke="rgb(239,193,200)" stroke-width="1" opacity="1" d="M 104.5 212 L 112 212.5 L 104.5 213 L 104.5 212 Z " /><path fill="rgb(237,237,237)" stroke="rgb(237,237,237)" stroke-width="1" opacity="1" d="M 0 0 L 207 0 L 207 215 L 0 215 L 0 0 Z M 40 2 L 30 5 L 16 15 Q 6 23 2 37 L 3 55 L 16 87 L 11 108 L 11 126 L 16 149 Q 22 164 31 176 Q 42 189 58 199 Q 69 206 84 210 L 94 212 L 104 212 L 105 213 L 122 212 L 142 207 Q 158 201 171 190 Q 187 176 197 155 L 202 141 L 204 131 L 204 120 L 205 119 L 204 103 L 199 84 Q 193 68 183 56 Q 172 42 157 33 L 133 23 L 123 21 L 115 21 L 114 20 L 94 21 L 83 24 L 63 8 Q 54 2 40 2 Z M 3 175 L 2 178 L 3 178 L 3 175 Z M 3 184 L 2 190 L 3 190 L 3 184 Z M 204 184 L 203 189 L 204 189 L 204 184 Z M 3 195 L 2 201 L 3 201 L 3 195 Z M 204 195 L 203 201 L 204 201 L 204 195 Z M 3 206 L 2 212 L 3 212 L 3 206 Z M 204 206 L 203 212 L 204 212 L 204 206 Z " /><path fill="rgb(237,237,237)" stroke="rgb(237,237,237)" stroke-width="1" opacity="1" d="M 105.5 61 L 122.5 63 L 130.5 66 Q 143.7 72.3 152 83.5 L 161 102.5 L 162 107.5 L 162 125.5 Q 157.6 146.6 143.5 158 Q 135.1 165.1 123.5 169 L 114.5 171 L 101.5 171 Q 79.2 167.3 67 153.5 Q 57.9 144.1 54 129.5 L 53 124.5 L 53 107.5 Q 57.9 84.9 73.5 73 L 89.5 64 L 105.5 61 Z M 105 89 L 93 94 Q 85 99 82 110 Q 80 126 87 133 Q 92 140 103 142 L 113 142 L 122 138 Q 130 132 133 121 L 133 111 L 128 100 Q 121 89 105 89 Z " /></svg>